<svg xmlns="http://www.w3.org/2000/svg" xmlns:xlink="http://www.w3.org/1999/xlink" version="1.1" x="0px" y="0px" viewBox="0 0 100 125" style="enable-background:new 0 0 100 100;" xml:space="preserve"><path style="fill: rgba(255,255,255,0.5);" d="M88.8,64.4c-1.1,0-2,0.9-2,2v1.4l-3.1-1.8c-1-0.6-2.2-0.2-2.8,0.7c-0.6,1-0.2,2.2,0.7,2.8l3.2,1.8l-1.6,0.8  c-1,0.5-1.4,1.7-0.9,2.7c0.4,0.7,1.1,1.1,1.8,1.1c0.3,0,0.6-0.1,0.9-0.2l4.7-2.4c0.7-0.3,1.1-1,1.1-1.8v-5.2  C90.9,65.3,90,64.4,88.8,64.4z"/><path style="fill: rgba(255,255,255,0.5);" d="M74.8,76.5l-11.9,6c-1,0.5-1.4,1.7-0.9,2.7c0.4,0.7,1.1,1.1,1.8,1.1c0.3,0,0.6-0.1,0.9-0.2l11.9-6c1-0.5,1.4-1.7,0.9-2.7  C77,76.4,75.8,76,74.8,76.5z"/><path style="fill: rgba(255,255,255,0.5);" d="M54.4,86.8l-1.7,0.9v-1.9c0-1.1-0.9-2-2-2c-1.1,0-2,0.9-2,2v1.9l-2.4-1.3c-1-0.5-2.2-0.1-2.7,0.9c-0.5,1-0.1,2.2,0.9,2.7  l5.4,2.8c0,0,0,0,0.1,0c0,0,0.1,0,0.1,0c0.1,0,0.1,0,0.2,0.1c0,0,0.1,0,0.1,0c0.1,0,0.1,0,0.2,0c0,0,0,0,0.1,0c0.1,0,0.2,0,0.3,0  c0,0,0,0,0,0c0.1,0,0.2,0,0.2,0c0,0,0.1,0,0.1,0c0.1,0,0.1,0,0.2,0c0,0,0.1,0,0.1,0c0.1,0,0.1,0,0.2-0.1c0,0,0.1,0,0.1,0  c0,0,0,0,0.1,0l4.7-2.4c1-0.5,1.4-1.7,0.9-2.7C56.6,86.7,55.4,86.3,54.4,86.8z"/><path style="fill: rgba(255,255,255,0.5);" d="M50.6,61.7c-1.1,0-2,0.9-2,2v12.9c0,1.1,0.9,2,2,2c1.1,0,2-0.9,2-2V63.7C52.7,62.6,51.7,61.7,50.6,61.7z"/><path style="fill: rgba(255,255,255,0.5);" d="M52.7,50.6l3.6-1.8c1-0.5,1.4-1.7,0.9-2.7c-0.5-1-1.7-1.4-2.7-0.9l-3.8,1.9l-4.5-2.3c-1-0.5-2.2-0.1-2.7,0.9  c-0.5,1-0.1,2.2,0.9,2.7l4.3,2.2v4c0,1.1,0.9,2,2,2c1.1,0,2-0.9,2-2V50.6z"/><path style="fill: rgba(255,255,255,0.5);" d="M74.8,34.9l-11.9,6c-1,0.5-1.4,1.7-0.9,2.7c0.4,0.7,1.1,1.1,1.8,1.1c0.3,0,0.6-0.1,0.9-0.2l11.9-6c1-0.5,1.4-1.7,0.9-2.7  C77,34.8,75.8,34.4,74.8,34.9z"/><path style="fill: rgba(255,255,255,0.5);" d="M89.9,28.4c-0.3-0.2-0.7-0.3-1.1-0.3l-4.3-2.4c-1-0.5-2.2-0.2-2.8,0.8c-0.5,1-0.2,2.2,0.8,2.8l1.7,0.9l-0.9,0.5  c-1,0.5-1.4,1.7-0.9,2.7c0.5,1,1.7,1.4,2.7,0.9l1.7-0.9v1.9c0,1.1,0.9,2,2,2c1.1,0,2-0.9,2-2v-5.2C90.9,29.4,90.5,28.7,89.9,28.4z"/><path style="fill: rgba(255,255,255,0.5);" d="M88.8,42.4c-1.1,0-2,0.9-2,2v12.9c0,1.1,0.9,2,2,2c1.1,0,2-0.9,2-2V44.5C90.9,43.4,90,42.4,88.8,42.4z"/><path style="fill: rgba(255,255,255,0.5);" d="M32.9,42.4l5.4,2.8c0.3,0.2,0.6,0.2,0.9,0.2c0.7,0,1.4-0.4,1.8-1.1c0.5-1,0.1-2.2-0.9-2.7l-5.4-2.8c-1-0.5-2.2-0.1-2.7,0.9  C31.5,40.7,31.9,41.9,32.9,42.4z"/><path style="fill: rgba(255,255,255,0.5);" d="M21.5,36.5l5.4,2.8c0.3,0.2,0.6,0.2,0.9,0.2c0.7,0,1.4-0.4,1.8-1.1c0.5-1,0.1-2.2-0.9-2.7l-5.4-2.8c-1-0.5-2.2-0.1-2.7,0.9  C20.1,34.7,20.5,36,21.5,36.5z"/><path style="fill: rgba(255,255,255,0.5);" d="M70.5,20.2c-0.5,1-0.2,2.2,0.8,2.8l5.3,3c0.3,0.2,0.7,0.3,1,0.3c0.7,0,1.4-0.4,1.8-1c0.5-1,0.2-2.2-0.8-2.8l-5.3-3  C72.3,18.9,71.1,19.3,70.5,20.2z"/><path style="fill: rgba(255,255,255,0.5);" d="M59.3,14c-0.5,1-0.2,2.2,0.8,2.8l5.3,3c0.3,0.2,0.7,0.3,1,0.3c0.7,0,1.4-0.4,1.8-1c0.5-1,0.2-2.2-0.8-2.8l-5.3-3  C61.1,12.7,59.8,13,59.3,14z"/><path style="fill: rgba(255,255,255,0.5);" d="M17.4,71.3l-1.5-0.8L43,54.5c1-0.6,1.3-1.8,0.7-2.8c-0.6-1-1.8-1.3-2.8-0.7L13.8,67.1V32.4l1.7,0.9c0.3,0.2,0.6,0.2,0.9,0.2  c0.7,0,1.4-0.4,1.8-1.1c0.5-1,0.1-2.2-0.9-2.7l-1.3-0.7l31.9-17.2v29.3c0,1.1,0.9,2,2,2c1.1,0,2-0.9,2-2V12.2l2.2,1.2  c0.3,0.2,0.7,0.3,1,0.3c0.7,0,1.4-0.4,1.8-1c0.5-1,0.2-2.2-0.8-2.8l-4.4-2.5c-0.2-0.3-0.4-0.6-0.7-0.7c-0.6-0.4-1.4-0.4-2,0  L10.8,27.3c0,0,0,0,0,0c0,0,0,0,0,0c-0.1,0.1-0.2,0.1-0.3,0.2c0,0-0.1,0-0.1,0.1c-0.1,0.1-0.1,0.1-0.2,0.2c0,0,0,0,0,0  C10.1,27.9,10,28,10,28.1c0,0,0,0,0,0c0,0,0,0,0,0c0,0.1-0.1,0.2-0.1,0.3c0,0,0,0,0,0c0,0.1,0,0.2-0.1,0.3c0,0,0,0.1,0,0.1  c0,0,0,0.1,0,0.1v41.6c0,0.1,0,0.1,0,0.2c0,0,0,0,0,0.1c0,0.1,0,0.2,0.1,0.3c0,0,0,0.1,0,0.1c0,0.1,0.1,0.2,0.1,0.3c0,0,0,0,0,0.1  c0.1,0.1,0.1,0.2,0.2,0.3c0,0,0,0,0.1,0.1c0.1,0.1,0.1,0.1,0.2,0.2c0,0,0,0,0.1,0.1c0.1,0.1,0.2,0.1,0.3,0.2c0,0,0,0,0,0  c0,0,0,0,0,0l4.7,2.5c0.3,0.2,0.6,0.2,0.9,0.2c0.7,0,1.4-0.4,1.8-1.1C18.8,73.1,18.4,71.9,17.4,71.3z"/><path style="fill: rgba(255,255,255,0.5);" d="M40.2,83.2l-5.4-2.8c-1-0.5-2.2-0.1-2.7,0.9c-0.5,1-0.1,2.2,0.9,2.7l5.4,2.8c0.3,0.2,0.6,0.2,0.9,0.2c0.7,0,1.4-0.4,1.8-1.1  C41.6,85,41.2,83.8,40.2,83.2z"/><path style="fill: rgba(255,255,255,0.5);" d="M29.6,80c0.5-1,0.1-2.2-0.9-2.7l-5.4-2.8c-1-0.5-2.2-0.1-2.7,0.9c-0.5,1-0.1,2.2,0.9,2.7l5.4,2.8c0.3,0.2,0.6,0.2,0.9,0.2  C28.6,81.1,29.3,80.7,29.6,80z"/><path style="fill: rgba(255,255,255,0.5);" d="M64.8,59.6c0.7,0,1.4-0.4,1.8-1c0.6-1,0.2-2.2-0.7-2.8l-6.2-3.5c-1-0.6-2.2-0.2-2.8,0.7c-0.6,1-0.2,2.2,0.7,2.8l6.2,3.5  C64.1,59.5,64.5,59.6,64.8,59.6z"/><path style="fill: rgba(255,255,255,0.5);" d="M78.6,65.5c0.6-1,0.2-2.2-0.7-2.8l-6.2-3.5c-1-0.6-2.2-0.2-2.8,0.7c-0.6,1-0.2,2.2,0.7,2.8l6.2,3.5c0.3,0.2,0.7,0.3,1,0.3  C77.5,66.5,78.2,66.1,78.6,65.5z"/></svg>