<svg xmlns="http://www.w3.org/2000/svg" xmlns:xlink="http://www.w3.org/1999/xlink" version="1.1" x="0px" y="0px" viewBox="0 0 31.19 40.0925" style="fill: transparent;" xml:space="preserve"><g><path style="fill: #fff;" d="M31.046,27.339l-9.201-16.729c-0.17-0.308-0.493-0.499-0.845-0.499s-0.675,0.191-0.845,0.499l-5.117,9.305l4.579,9.16   H30.02c0.414,0,0.798-0.219,1.008-0.575C31.238,28.143,31.245,27.702,31.046,27.339z"/><path style="fill: #fff;" d="M2.048,9.104c0.329,0.794,0.307,1.689-0.063,2.466c-0.071,0.149-0.04,0.327,0.076,0.443s0.294,0.147,0.443,0.076   c0.776-0.369,1.672-0.392,2.466-0.063c0.794,0.328,1.411,0.979,1.699,1.788c0.056,0.155,0.202,0.26,0.367,0.26   s0.312-0.104,0.367-0.26c0.288-0.81,0.905-1.46,1.699-1.788c0.794-0.329,1.689-0.307,2.466,0.063   c0.149,0.071,0.326,0.04,0.443-0.076c0.116-0.117,0.147-0.294,0.076-0.443c-0.369-0.776-0.392-1.672-0.063-2.466   c0.329-0.794,0.979-1.411,1.789-1.699c0.155-0.056,0.26-0.202,0.26-0.367s-0.104-0.312-0.26-0.367   c-0.81-0.288-1.46-0.905-1.788-1.699c-0.329-0.794-0.307-1.689,0.063-2.466c0.071-0.149,0.04-0.327-0.076-0.443   s-0.294-0.147-0.443-0.076c-0.776,0.369-1.672,0.392-2.466,0.063C8.31,1.72,7.692,1.069,7.404,0.26C7.349,0.104,7.202,0,7.037,0   S6.726,0.104,6.67,0.26c-0.288,0.81-0.905,1.46-1.699,1.788C4.177,2.377,3.281,2.354,2.505,1.985   c-0.149-0.071-0.327-0.04-0.443,0.076S1.914,2.355,1.985,2.505c0.369,0.776,0.392,1.672,0.063,2.466   C1.72,5.765,1.069,6.382,0.26,6.67C0.104,6.726,0,6.872,0,7.037s0.104,0.312,0.26,0.367C1.069,7.692,1.72,8.31,2.048,9.104z    M7.037,3.037c2.21,0,4,1.79,4,4s-1.79,4-4,4s-4-1.79-4-4S4.827,3.037,7.037,3.037z"/><circle cx="7.037" cy="7.037" r="3"/><path style="fill: #fff;" d="M10.8,13.674c-0.151-0.303-0.461-0.494-0.8-0.494s-0.648,0.191-0.8,0.494L0.848,30.38   c-0.182,0.363-0.162,0.794,0.051,1.139c0.213,0.346,0.59,0.556,0.996,0.556h16.211c0.406,0,0.783-0.21,0.996-0.556   c0.213-0.345,0.232-0.775,0.051-1.139L10.8,13.674z"/></g></svg>
