<svg xmlns="http://www.w3.org/2000/svg" xmlns:xlink="http://www.w3.org/1999/xlink" version="1.1" x="0px" y="0px" viewBox="0 0 32 40" enable-background="new 0 0 32 32" xml:space="preserve"><g><g><path d="M10,4c-3.447,0-6,9.492-6,12c0,2.967,2.167,5.432,5,5.91V26H7v2h6v-2h-2v-4.09c2.833-0.479,5-2.943,5-5.91    C16,13.492,13.447,4,10,4z M11,19.858v-1.323l2.555-1.703l-1.109-1.664L11,16.132V13H9v2.132l-1.445-0.964l-1.109,1.664L9,17.535    v2.323c-1.72-0.447-3-2-3-3.858c0-3.084,2.767-10,4-10s4,6.916,4,10C14,17.858,12.72,19.411,11,19.858z"/><path d="M22,4c-3.447,0-6,9.492-6,12c0,2.967,2.167,5.432,5,5.91V26h-2v2h6v-2h-2v-4.09c2.833-0.479,5-2.943,5-5.91    C28,13.492,25.447,4,22,4z M23,19.858v-1.323l2.555-1.703l-1.109-1.664L23,16.132V13h-2v2.132l-1.445-0.964l-1.109,1.664    L21,17.535v2.323c-1.72-0.447-3-2-3-3.858c0-3.084,2.767-10,4-10s4,6.916,4,10C26,17.858,24.72,19.411,23,19.858z"/></g></g><defs><style>.cls-1{fill:none;stroke:rgba(255,255,255,0.5);stroke-linecap:round;stroke-miterlimit:10;stroke-width:7px;}</style></defs></svg>