<svg xmlns="http://www.w3.org/2000/svg" xmlns:xlink="http://www.w3.org/1999/xlink" version="1.1" x="0px" y="0px" viewBox="0 0 100 125" enable-background="new 0 0 100 100" xml:space="preserve"><path style="fill: rgba(255,255,255,0.5);" d="M80.199,47.716c-1.407,0-2.55,1.141-2.55,2.551v39.667h-13.98V74.628c0-7.538-6.131-13.67-13.669-13.67  c-7.539,0-13.671,6.132-13.671,13.67v15.307H22.351V50.267c0-1.41-1.143-2.551-2.55-2.551c-1.408,0-2.551,1.141-2.551,2.551v42.217  c0,1.408,1.143,2.551,2.551,2.551h19.078c1.408,0,2.55-1.143,2.55-2.551V74.628c0-4.723,3.846-8.569,8.571-8.569  c4.725,0,8.569,3.847,8.569,8.569v17.856c0,1.408,1.143,2.551,2.55,2.551h19.08c1.408,0,2.551-1.143,2.551-2.551V50.267  C82.75,48.859,81.607,47.716,80.199,47.716z M91.583,45.464L51.801,5.682c-0.958-0.957-2.65-0.957-3.605,0L8.416,45.464  c-0.996,0.996-0.996,2.61,0,3.606c0.498,0.498,1.151,0.747,1.804,0.747c0.653,0,1.306-0.249,1.804-0.747L50,11.092l37.979,37.979  c0.996,0.996,2.61,0.996,3.606,0S92.579,46.46,91.583,45.464z"/></svg>