<svg xmlns="http://www.w3.org/2000/svg" xmlns:xlink="http://www.w3.org/1999/xlink" version="1.1" x="0px" y="0px" viewBox="0 0 62 80" style="enable-background:new 0 0 62 64;" xml:space="preserve"><title>Somnio</title><path style="fill: #FFEAB1;" d="M62,40c0-2.2-1.8-4-4-4s-4,1.8-4,4c0,2.1,1.7,3.8,3.8,4c0,1.1-0.3,2.1-0.8,3c-0.9,1.5-2.4,2.6-4.6,3.1  c-2.5,0.7-5.6,0.7-9,0.2c1-3,1.7-6.3,2.1-9.9C56.6,32.1,62.2,22.1,58.7,16c-2.1-3.6-7-5.2-13.8-4.5c-0.7,0.1-1.5,0.2-2.2,0.3  C40,4.6,35.8,0,31,0c-1.7,0-3.4,0.6-4.8,1.6C25.5,1.2,24.8,1,24,1c-2.2,0-4,1.8-4,4s1.8,4,4,4s4-1.8,4-4c0-0.7-0.2-1.3-0.5-1.9  C28.6,2.4,29.8,2,31,2c3.8,0,7.3,4,9.7,10.2c-3.1,0.7-6.4,1.7-9.7,3.1c-4.9-2.1-9.6-3.4-13.9-3.8C10.2,10.8,5.4,12.4,3.3,16  c-3.5,6.1,2.1,16.1,13.2,24.4c0.4,3.6,1.2,7,2.1,9.9c-3.4,0.5-6.5,0.5-9-0.2C7.4,49.6,5.9,48.5,5,47c-0.5-0.9-0.8-2-0.8-3  C6.3,43.8,8,42.1,8,40c0-2.2-1.8-4-4-4s-4,1.8-4,4c0,1.6,0.9,2.9,2.3,3.6c-0.1,1.5,0.3,3.1,1,4.4c1.1,2,3.1,3.3,5.8,4.1  c1.5,0.4,3.2,0.6,5,0.6c1.6,0,3.4-0.2,5.2-0.5C22,59.4,26.2,64,31,64c4.8,0,9-4.6,11.7-11.8c1.8,0.3,3.6,0.5,5.2,0.5  c1.8,0,3.5-0.2,5-0.6c2.7-0.7,4.7-2.1,5.8-4.1c0.7-1.3,1.1-2.9,1-4.4C61.1,42.9,62,41.6,62,40z M24,7c-1.1,0-2-0.9-2-2s0.9-2,2-2  s2,0.9,2,2S25.1,7,24,7z M4,38c1.1,0,2,0.9,2,2s-0.9,2-2,2s-2-0.9-2-2S2.9,38,4,38z M41.3,49.9c-2.5-0.5-5.1-1.3-7.8-2.4  c1.7-0.8,3.3-1.6,5-2.6c1.7-1,3.2-2,4.7-3C42.8,44.9,42.1,47.5,41.3,49.9z M18,32c0-2.4,0.1-4.9,0.4-7.3c1.9-1.4,4-2.8,6.1-4  c2.2-1.2,4.3-2.3,6.5-3.3c2.2,1,4.4,2,6.5,3.3c2.1,1.2,4.1,2.5,6.1,3.9C43.9,27,44,29.5,44,32c0,2.5-0.1,4.9-0.4,7.3  c-1.9,1.4-3.9,2.7-6.1,4c-2.2,1.2-4.3,2.3-6.5,3.3c-2.2-0.9-4.3-2-6.5-3.3c-2.2-1.2-4.2-2.6-6.1-4C18.1,36.9,18,34.5,18,32z   M45.8,37.6c0.1-1.8,0.2-3.7,0.2-5.6c0-1.9-0.1-3.8-0.2-5.6c2.1,1.7,4.1,3.6,5.9,5.6C50,33.9,48,35.8,45.8,37.6z M45.1,13.5  C51,12.9,55.3,14.2,57,17c1.9,3.3,0.2,8.3-4,13.5c-2.3-2.5-4.8-4.8-7.5-6.8c-0.4-3.6-1.2-7-2.1-9.9C44,13.6,44.6,13.5,45.1,13.5z   M41.3,14.1c0.8,2.4,1.4,5.1,1.9,7.9c-1.5-1.1-3.1-2-4.7-3c-1.6-0.9-3.3-1.8-5-2.6C36.2,15.4,38.8,14.6,41.3,14.1z M23.5,19  c-1.6,0.9-3.2,1.9-4.7,3c0.4-2.7,1.1-5.3,1.9-7.9c2.5,0.5,5.1,1.3,7.8,2.3C26.8,17.2,25.2,18.1,23.5,19z M5,17  c1.6-2.8,5.9-4.1,11.8-3.5c0.6,0.1,1.2,0.2,1.8,0.2c-1,3.3-1.7,6.6-2.2,9.9c-2.7,2.1-5.2,4.3-7.5,6.8C4.8,25.3,3.1,20.3,5,17z   M10.3,32c1.8-2,3.8-3.9,5.9-5.6C16.1,28.3,16,30.1,16,32c0,1.9,0.1,3.8,0.2,5.6C14,35.8,12,33.9,10.3,32z M18.8,42  c1.5,1,3.1,2,4.7,3c1.6,0.9,3.3,1.8,5,2.6c-2.7,1-5.3,1.8-7.8,2.4C19.9,47.5,19.2,44.9,18.8,42z M31,62c-3.8,0-7.3-4-9.7-10.2  c3.1-0.7,6.3-1.7,9.7-3.1c3.3,1.4,6.6,2.4,9.7,3.1C38.3,58,34.8,62,31,62z M58,42c-1.1,0-2-0.9-2-2s0.9-2,2-2s2,0.9,2,2  S59.1,42,58,42z"/><path style="fill: #fff;" d="M28,34c0.9,0.6,1.9,1,3,1c1.1,0,2.2-0.4,3-1c0.9,0.2,5,1.4,5,6h2c0-4.4-3-6.7-5.4-7.6c0.9-1.3,1.4-3,1.4-4.9  c0-3-0.7-6.5-6-6.5c-5.3,0-6,3.5-6,6.5c0,1.9,0.5,3.6,1.4,4.9C24,33.3,21,35.6,21,40h2C23,35.4,27,34.2,28,34z M31,23  c3,0,4,1.1,4,4.5c0,2.7-1.4,5.5-4,5.5c-2.6,0-4-2.8-4-5.5C27,24.1,28,23,31,23z"/></svg>