<svg xmlns="http://www.w3.org/2000/svg" data-name="Layer 1" viewBox="0 0 100 125" x="0px" y="0px"><defs><style>.cls-1,.cls-2{fill:none;stroke:#000;stroke-width:2px;}.cls-1{stroke-miterlimit:10;}.cls-2{stroke-linecap:round;stroke-linejoin:round;}</style></defs><title>Virtual cluster</title><path class="cls-1" d="M70.42,33.61,52.61,23.32a4.81,4.81,0,0,0-4.81,0L30,33.61a5.85,5.85,0,0,0-2.92,5.06v27A5.85,5.85,0,0,0,30,70.7L47.8,81a4.81,4.81,0,0,0,4.81,0L70.42,70.7a5.85,5.85,0,0,0,2.92-5.06v-27A5.85,5.85,0,0,0,70.42,33.61Z"/><path class="cls-2" d="M43.18,45.29l4.13,2.38a5.85,5.85,0,0,0,5.85,0l4.09-2.36"/><path class="cls-2" d="M27.77,35.92,47.3,47.67a5.85,5.85,0,0,1,2.92,5.06V64.46"/><path class="cls-2" d="M72.88,36.38,53.15,47.67a5.85,5.85,0,0,0-2.92,5.06l0,28.9"/><path class="cls-1" d="M63.72,38.6l-11.9-6.87a3.21,3.21,0,0,0-3.21,0L36.7,38.6a3.91,3.91,0,0,0-2,3.38v5.35a3.91,3.91,0,0,0,2,3.38l11.9,6.87a3.21,3.21,0,0,0,3.21,0l11.9-6.87a3.91,3.91,0,0,0,2-3.38V42A3.91,3.91,0,0,0,63.72,38.6Z"/><path class="cls-1" d="M34.74,47v8.35a3.91,3.91,0,0,0,2,3.38l11.9,6.87a3.21,3.21,0,0,0,3.21,0l11.9-6.87a3.91,3.91,0,0,0,2-3.38V47"/><path class="cls-1" d="M34.74,54v8.35a3.91,3.91,0,0,0,2,3.38l11.9,6.87a3.21,3.21,0,0,0,3.21,0l11.9-6.87a3.91,3.91,0,0,0,2-3.38V54"/><line class="cls-1" x1="58.33" y1="68.77" x2="58.33" y2="44.66"/><line class="cls-1" x1="42.15" y1="68.77" x2="42.15" y2="44.66"/><line class="cls-1" x1="42.15" y1="44.66" x2="58.33" y2="35.49"/><line class="cls-1" x1="58.33" y1="44.66" x2="42.15" y2="35.45"/></svg>