<svg xmlns="http://www.w3.org/2000/svg" xmlns:xlink="http://www.w3.org/1999/xlink" version="1.0" x="0px" y="0px" viewBox="0 0 50 62.5" enable-background="new 0 0 50 50" xml:space="preserve"><g><path style="fill: #feff97;" d="M2.4,19.1l4.2,2.3L7,26.2c0,0.5,0.4,0.9,0.8,1.1c0.1,0.1,0.3,0.1,0.4,0.1c0.3,0,0.6-0.1,0.8-0.3l3.5-3.2l4.7,1.1   c0.5,0.1,0.9-0.1,1.2-0.4c0.3-0.4,0.4-0.9,0.2-1.3l-2-4.3l2.4-4.1c0.2-0.4,0.2-0.9,0-1.3c-0.3-0.4-0.7-0.6-1.2-0.6l-4.7,0.6L10,9.7   C9.7,9.3,9.2,9.2,8.7,9.3c-0.5,0.1-0.8,0.5-0.9,1l-0.9,4.7l-4.4,1.9c-0.4,0.2-0.7,0.6-0.8,1.1C1.7,18.4,2,18.8,2.4,19.1z M8.5,17   c0.4-0.2,0.7-0.5,0.7-0.9l0.6-2.8l1.9,2.2c0.3,0.3,0.7,0.5,1.1,0.4l2.9-0.3L14.2,18c-0.2,0.4-0.2,0.8-0.1,1.2l1.2,2.6l-2.8-0.6   c-0.4-0.1-0.8,0-1.1,0.3l-2.1,2L9,20.5c0-0.4-0.3-0.8-0.6-1l-2.5-1.4L8.5,17z"/><path style="fill: #80ad86;" d="M15.7,12c11.4-3.3,23.7-1.4,30,4.5c0.2,0.2,0.5,0.3,0.9,0.3c0.3,0,0.7-0.1,0.9-0.4c0.5-0.5,0.4-1.3-0.1-1.8   C40.5,8.2,27.2,6.1,15,9.6c-0.7,0.2-1,0.9-0.9,1.5C14.3,11.9,15,12.2,15.7,12z"/><path style="fill: #80ad86;" d="M22.1,14.6c-0.7-0.1-1.3,0.5-1.3,1.2c-0.1,0.7,0.5,1.3,1.2,1.3c10,0.7,19.6,5.3,24.1,11.3c0.2,0.3,0.6,0.5,1,0.5   c0.3,0,0.5-0.1,0.7-0.2c0.6-0.4,0.7-1.2,0.3-1.7C43.1,20.2,32.9,15.4,22.1,14.6z"/><path style="fill: #80ad86;" d="M41,41.2c0.2,0.5,0.7,0.8,1.2,0.8c0.2,0,0.3,0,0.5-0.1c0.6-0.3,1-1,0.7-1.6c-3.9-10-11.6-17.1-22.3-20.4   c-0.7-0.2-1.4,0.2-1.6,0.8c-0.2,0.7,0.2,1.4,0.8,1.6C30.2,25.4,37.4,32,41,41.2z"/></g></svg>