<svg xmlns="http://www.w3.org/2000/svg" data-name="Layer 1" viewBox="0 0 100 125" x="0px" y="0px"><title>82</title><path style="fill: rgba(255,255,255,0.5);" d="M50,33A17,17,0,1,0,67,50,17.1,17.1,0,0,0,50,33ZM50,61A11,11,0,1,1,61,50,11.1,11.1,0,0,1,50,61Z"/><path style="fill: rgba(255,255,255,0.5);" d="M92.2,47H84.1A34.3,34.3,0,0,0,53,15.9V7.8a3,3,0,0,0-6,0v8.1A34.3,34.3,0,0,0,15.9,47H7.7a3,3,0,0,0,0,6h8.1A34.3,34.3,0,0,0,47,84.1v8.1a3,3,0,0,0,6,0V84.1A34.3,34.3,0,0,0,84.1,53h8.1a3,3,0,1,0,0-6ZM50,78.2A28.2,28.2,0,1,1,78.2,50,28.3,28.3,0,0,1,50,78.2Z"/></svg>