<svg xmlns:dc="http://purl.org/dc/elements/1.1/" xmlns:cc="http://creativecommons.org/ns#" xmlns:rdf="http://www.w3.org/1999/02/22-rdf-syntax-ns#" xmlns:svg="http://www.w3.org/2000/svg" xmlns="http://www.w3.org/2000/svg" xmlns:sodipodi="http://sodipodi.sourceforge.net/DTD/sodipodi-0.dtd" xmlns:inkscape="http://www.inkscape.org/namespaces/inkscape" viewBox="0 0 64.000001 80.00000125" version="1.1" x="0px" y="0px"><g transform="translate(0,-988.36218)"><path style="color:#000000;font-style:normal;font-variant:normal;font-weight:normal;font-stretch:normal;font-size:medium;line-height:normal;font-family:sans-serif;text-indent:0;text-align:start;text-decoration:none;text-decoration-line:none;text-decoration-style:solid;text-decoration-color:#000000;letter-spacing:normal;word-spacing:normal;text-transform:none;direction:ltr;block-progression:tb;writing-mode:lr-tb;baseline-shift:baseline;text-anchor:start;white-space:normal;clip-rule:nonzero;display:inline;overflow:visible;visibility:visible;opacity:1;isolation:auto;mix-blend-mode:normal;color-interpolation:sRGB;color-interpolation-filters:linearRGB;solid-color:#000000;solid-opacity:1;fill:#fff;fill-opacity:1;fill-rule:nonzero;stroke:none;stroke-width:4;stroke-linecap:round;stroke-linejoin:round;stroke-miterlimit:4;stroke-dasharray:none;stroke-dashoffset:0;stroke-opacity:1;color-rendering:auto;image-rendering:auto;shape-rendering:auto;text-rendering:auto;enable-background:accumulate" d="m 30.345748,996.36602 c 1.345379,0.0198 2.703035,0.15435 4.060547,0.40821 8.344868,1.56055 15.034922,7.36547 17.968751,14.97267 l 1.695312,-5.9316 a 2.0002,2.0002 0 0 1 1.917969,-1.4786 2.0002,2.0002 0 0 1 1.929688,2.5782 l -4,14 a 2.0008484,2.0008484 0 0 1 -3.853517,-1.0762 2.0002,2.0002 0 0 1 -0.09961,-0.5723 c -0.506865,-9.2123 -7.225938,-16.8645 -16.294922,-18.5605 -9.068984,-1.69597 -18.096737,3.0114 -21.898437,11.4179 -3.8017008,8.4065 -1.37417,18.2946 5.888672,23.9844 7.262841,5.6898 17.445076,5.6814 24.697265,-0.021 a 2.0002,2.0002 0 1 1 2.472657,3.1426 c -8.684489,6.8297 -20.939476,6.8431 -29.636719,0.029 -8.6972438,-6.8136 -11.6189368,-18.7164 -7.0664068,-28.7832 3.9834658,-8.8085 12.8011048,-14.24783 22.2187498,-14.10938 z"/></g></svg>