<svg xmlns="http://www.w3.org/2000/svg" xmlns:xlink="http://www.w3.org/1999/xlink" version="1.1" x="0px" y="0px" viewBox="1 -1 100 125" style="enable-background:new 1 -1 100 100;" xml:space="preserve"><g><path d="M49.2,64.9c0.2,0.2,0.5,0.5,1,0.6c0.1,0.1,0.4,0.2,0.8,0.2c0.2,0,0.6,0,1-0.2c0.3-0.1,0.6-0.4,0.7-0.5l15.2-15.2   c0.5-0.5,0.7-1.1,0.7-1.7c0-0.6-0.3-1.3-0.7-1.7c-0.9-0.9-2.5-0.9-3.5,0L53.4,57.2V15.9c0-1.4-1-2.5-2.5-2.5s-2.5,1-2.5,2.5v41.3   L37.5,46.2c-0.9-0.9-2.5-0.9-3.5,0c-1,1-1,2.5,0,3.5L49.2,64.9z"/><path d="M88.7,68.6c-1.4,0-2.5,1-2.5,2.5v8.1c0,0.3-0.1,0.5-0.5,0.5H16.2c-0.3,0-0.5-0.1-0.5-0.5v-8.1c0-1.4-1-2.5-2.5-2.5   s-2.5,1-2.5,2.5v8.1c0,3,2.4,5.4,5.4,5.4h69.6c3,0,5.4-2.4,5.4-5.4v-8.1C91.2,69.6,90.2,68.6,88.7,68.6z"/></g></svg>