<svg xmlns="http://www.w3.org/2000/svg" data-name="Layer 1" viewBox="0 0 100 125" x="0px" y="0px"><title>06</title><path d="M85.23,17.45s0-.09,0-.14,0-.16,0-.24a3,3,0,0,0-.09-.31c0-.07,0-.14-.08-.21a3,3,0,0,0-.17-.32l-.1-.17a3,3,0,0,0-.79-.79l-.16-.1L83.45,15l-.21-.08-.31-.09-.24,0-.14,0L66.76,13.15a3,3,0,0,0-.61,6l9.51,1L56.23,39.53a3,3,0,1,0,4.24,4.24L79.91,24.34l1,9.51a3,3,0,0,0,3,2.69l.31,0a3,3,0,0,0,2.68-3.29Z"/><path d="M13.15,66.76l1.62,15.79s0,.09,0,.14,0,.16,0,.24a3,3,0,0,0,.09.31c0,.07,0,.14.08.21a3,3,0,0,0,.17.32l.1.17a3,3,0,0,0,.79.79l.16.1.32.17.21.08.31.09.24,0,.14,0,15.79,1.62.31,0a3,3,0,0,0,.3-6l-9.51-1L43.77,60.47a3,3,0,0,0-4.24-4.24L20.09,75.66l-1-9.51a3,3,0,1,0-6,.61Z"/><path d="M63.47,84.17a3,3,0,0,0,3,2.69l.31,0,15.79-1.62.14,0,.24,0,.31-.09.21-.08.32-.17.16-.1a3,3,0,0,0,.79-.79l.1-.17a3,3,0,0,0,.17-.32c0-.07.06-.14.08-.21a3,3,0,0,0,.09-.31c0-.08,0-.16,0-.24s0-.09,0-.14l1.62-15.79a3,3,0,1,0-6-.61l-1,9.51L60.47,56.23a3,3,0,0,0-4.24,4.24L75.66,79.91l-9.51,1A3,3,0,0,0,63.47,84.17Z"/><path d="M36.53,15.83a3,3,0,0,0-3.29-2.68L17.45,14.77l-.14,0-.24,0-.31.09-.21.08-.32.17-.16.1a3,3,0,0,0-.79.79l-.1.17a3,3,0,0,0-.17.32c0,.07-.06.14-.08.21a3,3,0,0,0-.09.31c0,.08,0,.16,0,.24s0,.09,0,.14L13.15,33.24a3,3,0,0,0,2.68,3.29l.31,0a3,3,0,0,0,3-2.69l1-9.51L39.53,43.77a3,3,0,0,0,4.24-4.24L24.34,20.09l9.51-1A3,3,0,0,0,36.53,15.83Z"/></svg>